HIERARCHY
ROOT hip
{
	OFFSET 0.000000 0.000000 0.000000
	CHANNELS 6 Xposition Yposition Zposition Xrotation Zrotation Yrotation 
	JOINT abdomen
	{
		OFFSET 0.000000 3.422050 0.000000
		CHANNELS 3 Xrotation Zrotation Yrotation 
		JOINT chest
		{
			OFFSET 0.000000 8.486693 -0.684411
			CHANNELS 3 Xrotation Zrotation Yrotation 
			JOINT neck
			{
				OFFSET 0.000000 10.266162 -0.273764
				CHANNELS 3 Xrotation Zrotation Yrotation 
				JOINT head
				{
					OFFSET 0.000000 3.148285 0.000000
					CHANNELS 3 Xrotation Zrotation Yrotation 
					End Site
					{
						OFFSET 0.000000 3.148289 0.000000
					}
				}
			}
			JOINT lCollar
			{
				OFFSET 3.422053 6.707223 -0.821293
				CHANNELS 3 Yrotation Zrotation Xrotation 
				JOINT lShldr
				{
					OFFSET 3.285171 0.000000 0.000000
					CHANNELS 3 Zrotation Yrotation Xrotation 
					JOINT lForeArm
					{
						OFFSET 10.129278 0.000000 0.000000
						CHANNELS 3 Yrotation Zrotation Xrotation 
						JOINT lHand
						{
							OFFSET 8.486692 0.000000 0.000000
							CHANNELS 3 Zrotation Yrotation Xrotation 
							End Site
							{
								OFFSET 4.106464 0.000000 0.000000
							}
						}
					}
				}
			}
			JOINT rCollar
			{
				OFFSET -3.558935 6.707223 -0.821293
				CHANNELS 3 Yrotation Zrotation Xrotation 
				JOINT rShldr
				{
					OFFSET -3.148289 0.000000 0.000000
					CHANNELS 3 Zrotation Yrotation Xrotation 
					JOINT rForeArm
					{
						OFFSET -10.266159 0.000000 0.000000
						CHANNELS 3 Yrotation Zrotation Xrotation 
						JOINT rHand
						{
							OFFSET -8.349810 0.000000 0.000000
							CHANNELS 3 Zrotation Yrotation Xrotation 
							End Site
							{
								OFFSET -4.106464 0.000000 0.000000
							}
						}
					}
				}
			}
		}
	}
	JOINT lThigh
	{
		OFFSET 5.338403 -1.642589 1.368821
		CHANNELS 3 Xrotation Zrotation Yrotation 
		JOINT lShin
		{
			OFFSET -2.053232 -20.121670 0.000000
			CHANNELS 3 Xrotation Zrotation Yrotation 
			JOINT lFoot
			{
				OFFSET 0.000000 -19.300380 -1.231939
				CHANNELS 3 Xrotation Yrotation Zrotation 
				End Site
				{
					OFFSET 0.000000 -2.463878 4.653993
				}
			}
		}
	}
	JOINT rThigh
	{
		OFFSET -5.338403 -1.642589 1.368821
		CHANNELS 3 Xrotation Zrotation Yrotation 
		JOINT rShin
		{
			OFFSET 2.053232 -20.121670 0.000000
			CHANNELS 3 Xrotation Zrotation Yrotation 
			JOINT rFoot
			{
				OFFSET 0.000000 -19.300380 -1.231939
				CHANNELS 3 Xrotation Yrotation Zrotation 
				End Site
				{
					OFFSET 0.000000 -2.463878 4.653993
				}
			}
		}
	}
}
MOTION
Frames: 6
Frame Time: 0.033264
-12.937112 10.262096 1.522891 0.000000 0.000000 173.993835 -0.659380 4.341292 -28.281664 -0.179655 0.465709 -0.750873 -2.403581 -13.948311 8.937067 -13.001502 12.998057 -30.003351 -29.578878 -47.336258 -11.402966 -32.011139 -18.047989 9.882292 -63.107616 -10.676329 -11.954528 -7.000325 0.000000 0.000000 17.077095 13.644804 -3.826214 4.983206 21.492617 0.281878 48.430878 16.273691 -7.708263 10.837414 24.529234 -34.105228 -91.206825 23.339113 29.941084 52.224281 -30.999651 -0.260857 54.315605 -7.941631 46.373257 -103.189949 -5.578785 -0.241744 48.204926 2.334894 0.180614 23.759811 1.328383 -14.664567 
-12.937112 10.262096 1.522891 0.000000 0.000000 173.993835 -0.659380 4.341292 -28.281664 -0.179655 0.465709 -0.750873 -2.320606 -14.239331 8.883067 -13.001502 12.998057 -30.003351 -29.578878 -47.336258 -11.402966 -32.011135 -18.047987 9.882291 -63.107616 -10.676329 -11.954528 -7.000325 0.000000 0.000000 17.077095 13.644804 -3.826214 4.983206 21.492613 0.281877 48.430874 16.273691 -7.708263 10.819189 24.630297 -33.929764 -91.206810 23.339111 29.941084 52.224281 -30.999651 -0.260857 54.315605 -7.941629 46.373257 -103.189949 -5.578785 -0.241744 48.204926 2.334894 0.180614 23.759809 1.328383 -14.664567 
-12.937112 10.262096 1.522891 0.000000 0.000000 173.993835 -0.659380 4.341292 -28.281664 -0.179655 0.465709 -0.750873 -2.237236 -14.530283 8.828561 -13.001502 12.998057 -30.003351 -29.578878 -47.336258 -11.402966 -32.011135 -18.047987 9.882291 -63.107616 -10.676329 -11.954528 -7.000325 0.000000 0.000000 17.077095 13.644804 -3.826214 4.983206 21.492613 0.281877 48.430874 16.273691 -7.708263 10.801287 24.731449 -33.754131 -91.206810 23.339111 29.941084 52.224281 -30.999651 -0.260857 54.315605 -7.941629 46.373257 -103.189949 -5.578785 -0.241744 48.204926 2.334894 0.180614 23.759809 1.328383 -14.664567 
-12.937112 10.262096 1.522891 0.000000 0.000000 173.993835 -0.659380 4.341292 -28.281664 -0.179655 0.465709 -0.750873 -2.153466 -14.821169 8.773541 -13.001502 12.998057 -30.003351 -29.578878 -47.336258 -11.402966 -32.011135 -18.047987 9.882291 -63.107616 -10.676329 -11.954528 -7.000325 0.000000 0.000000 17.077095 13.644804 -3.826214 4.983206 21.492613 0.281877 48.430874 16.273691 -7.708263 10.783706 24.832689 -33.578342 -91.206810 23.339111 29.941084 52.224281 -30.999651 -0.260857 54.315605 -7.941629 46.373257 -103.189949 -5.578785 -0.241744 48.204926 2.334894 0.180614 23.759809 1.328383 -14.664567 
-12.937112 10.262096 1.522891 0.000000 0.000000 173.993835 -0.659380 4.341292 -28.281664 -0.179655 0.465709 -0.750873 -2.069291 -15.111979 8.718006 -13.001502 12.998057 -30.003351 -29.578878 -47.336258 -11.402966 -32.011135 -18.047987 9.882291 -63.107616 -10.676329 -11.954528 -7.000325 0.000000 0.000000 17.077095 13.644804 -3.826214 4.983206 21.492613 0.281877 48.430874 16.273691 -7.708263 10.766446 24.934010 -33.402382 -91.206810 23.339111 29.941084 52.224281 -30.999651 -0.260857 54.315605 -7.941629 46.373257 -103.189949 -5.578785 -0.241744 48.204926 2.334894 0.180614 23.759809 1.328383 -14.664567 
-12.937112 10.262096 1.522891 0.000000 0.000000 173.993835 -0.659380 4.341292 -28.281664 -0.179655 0.465709 -0.750873 -1.984709 -15.402709 8.661950 -13.001502 12.998057 -30.003351 -29.578878 -47.336258 -11.402966 -32.011135 -18.047987 9.882291 -63.107616 -10.676329 -11.954528 -7.000325 0.000000 0.000000 17.077095 13.644804 -3.826214 4.983206 21.492613 0.281877 48.430874 16.273691 -7.708263 10.749512 25.035408 -33.226246 -91.206810 23.339111 29.941084 52.224281 -30.999651 -0.260857 54.315605 -7.941629 46.373257 -103.189949 -5.578785 -0.241744 48.204926 2.334894 0.180614 23.759809 1.328383 -14.664567 
